<svg xmlns="http://www.w3.org/2000/svg" viewBox="0 0 32 32" role="img" aria-label="Warcraft III">
  <defs>
    <linearGradient id="war3Shield" x1="0" y1="0" x2="1" y2="1">
      <stop offset="0" stop-color="#8ed8ff"/>
      <stop offset="0.55" stop-color="#3f8ed0"/>
      <stop offset="1" stop-color="#1e3d78"/>
    </linearGradient>
    <linearGradient id="war3Rune" x1="0" y1="0" x2="0" y2="1">
      <stop offset="0" stop-color="#fff2a6"/>
      <stop offset="1" stop-color="#e2a83e"/>
    </linearGradient>
  </defs>
  <path d="M16 2.5 28 7v8.1c0 7.1-4.9 11.7-12 14.4C8.9 26.8 4 22.2 4 15.1V7z" fill="#111a31" stroke="url(#war3Shield)" stroke-width="1.7"/>
  <path d="M16 5.7 24.8 9v5.9c0 5.2-3.3 8.7-8.8 11-5.5-2.3-8.8-5.8-8.8-11V9z" fill="#1c315d" opacity=".92"/>
  <path d="m16 7.5 1.65 5.1h5.35l-4.3 3.15 1.65 5.05-4.35-3.1-4.35 3.1 1.65-5.05-4.3-3.15h5.35z" fill="url(#war3Rune)"/>
  <path d="M10.1 23.1h11.8" stroke="#8ed8ff" stroke-width="1" opacity=".8"/>
</svg>
